<svg xmlns="http://www.w3.org/2000/svg" viewBox="-4 -11 100 100" enable-background="new -4 -11 100 100"><path fill="#fff" d="M61.9 45.5c-3.6 0-6.5 4-6.5 9s2.9 9 6.5 9 6.5-4 6.5-9c0-4.9-2.9-9-6.5-9zm22.6-23.4c.7-1.8.8-12.2-3.2-22.1 0 0-9.1 1-22.8 10.4-2.8-.8-7.6-1.2-12.5-1.2s-9.7.4-12.6 1.2c-13.7-9.4-22.8-10.4-22.8-10.4-3.9 9.9-3.9 20.3-3.1 22.1-4.7 5.1-7.5 11.1-7.5 19.4 0 35.9 29.8 36.5 37.3 36.5h17.4c7.5 0 37.3-.6 37.3-36.5 0-8.3-2.8-14.3-7.5-19.4zm-38.4 51.5h-.3c-18.8 0-33.5-2.3-33.5-20.6 0-4.4 1.5-8.5 5.2-11.8 6.1-5.6 16.5-2.7 28.3-2.7h.2c11.8 0 22.2-3 28.3 2.7 3.7 3.4 5.2 7.5 5.2 11.8.2 18.3-14.5 20.6-33.4 20.6zm-16-28.1c-3.6 0-6.5 4-6.5 9s2.9 9 6.5 9 6.5-4 6.5-9c0-4.9-2.9-9-6.5-9z"/></svg>