<svg xmlns="http://www.w3.org/2000/svg" viewBox="0 -12.5 100 100" enable-background="new 0 -12.5 100 100"><path d="M20.8 19.9c7.6.1 14 1.6 21.2 4 6.1 2 12.8 1.6 19.1-1 9-3.7 18.4-3.1 27.9-2.2 2.1.2 3.8.5 5.8 1.2 1.9.7 1.8 2.6.8 5.7-.8 5-1.9 9.5-4.2 14.4-1.8 3.9-4.6 6.1-9.5 6.8-3.3.5-7 .6-11.1.2-7.1-.8-11-3.8-13.9-9.4-.8-1.5-1.8-5.2-2.8-6.4-1.4-1.6-2.5-2.2-4.4-2.2-2.6 0-4.2 1-5.2 3.6-2.1 5.3-4 11-10 13.2-2.5.9-5.4.9-8.1 1-4.4.2-8.3-.1-11.9-1.3-5.4-1.8-7.1-7-8.8-12.2-.9-2.7-1.3-5-2.2-7.4-.8-2.1-1.4-2.5-.5-4.4.5-1.2 2-1.9 3.7-2.2 4.8-.9 9-1.4 14.1-1.4zm4.5 26.2c8.4-1.1 10-1.2 12.6-5.2 1.3-2.1 2.2-4.4 3.1-6.8 1.5-4.2.8-6.5-3.2-8.3-8.2-3.8-16.8-3.6-25.4-1.1-1.4.4-3 2.2-3.5 3.6-1.8 4.9 1.6 13.9 6.3 16 3 1.5 6.5 1.9 10.1 1.8zm47.9.5c4.2.3 7.6-.4 10.9-1.9 6.4-2.9 6.6-9.1 6.6-15.1 0-3.3-2.4-4.2-5.1-5.1-7-2.2-13.9-1.4-20.9 0-4.8 1-6.8 3.6-6.4 8.4.7 8.1 5.5 12.4 14.9 13.7z" fill="none"/></svg>