<svg version="1.2" baseProfile="tiny" xmlns="http://www.w3.org/2000/svg" viewBox="0 0 100 100"><path fill="#fff" d="M81.1 46c-.7-2.3-1.3-4.5-1.8-6.8.2-6.3-.5-14-1.8-18.2-2.4-7.6-7.5-11.3-14.4-15.3l-1.5-4.2c-.6.6-1 1.3-1.5 2-4.4-4-13.2-3.7-18.5-2.9-8.2 1.2-15.6 5-19.5 12.4-3 5.9-4 11.9-4 18.5.2 3.2-.1 6.9 1.4 9.8-.4 1.6-.8 3.2-1.3 4.8-2.3 7.4-4.9 14.6-5.2 22.3-.2 6.5 1.5 14.1 7.4 17.9 4.2 2.8 11.4 5.4 16.3 6.2-1-3.4-3.4-6.7-3-10.2 2.9 1 5.2 3.5 8.4 3.9.7-1.7-.2-3.7-.5-5.2l5.4 2.3c.9-3.9-1.9-9.3-3.1-13.3-11-3.5-19.3-16.7-20.1-30 2.1-1.6 3.9-3.7 5.6-5.5 0 1.2 0 2.3.3 3.5 4.2-1.5 7.2-4.4 10.4-7.2.3 1.7.2 3.5.7 5.2 7.4-3.4 13.7-11.1 16.9-19.4.4 6.2 2.1 12.7 3.6 17.1 2.1 6.5 6.1 13.5 11.6 18.3-3.4 8.4-9.7 15.3-17.3 17.8-1.2 4-4.1 9.5-3.1 13.5l5.4-2.3c-.3 1.5-1.2 3.5-.5 5.2 3.2-.3 5.5-2.9 8.4-3.9.3 3.5-2 6.9-3 10.2 4.9-.8 12.1-3.4 16.3-6.2 5.9-3.9 7.5-11.4 7.4-17.9-.5-7.9-3-15.1-5.4-22.4z"/></svg>