<svg xmlns="http://www.w3.org/2000/svg" viewBox="206 206 100 100" enable-background="new 206 206 100 100"><path fill="#fff" d="M305.5 225.3c-3.6 1.6-7.6 2.7-11.7 3.2 4.2-2.5 7.4-6.5 8.9-11.2-3.9 2.3-8.3 4-12.9 4.9-3.7-4-9-6.4-14.8-6.4-11.2 0-20.3 9.1-20.3 20.3 0 1.6.2 3.1.5 4.6-16.9-.8-31.9-8.9-41.9-21.2-1.8 3-2.8 6.5-2.8 10.2 0 7.1 3.6 13.3 9 16.9-3.3-.1-6.5-1-9.2-2.5v.3c0 9.9 7 18.1 16.3 19.9-1.7.5-3.5.7-5.4.7-1.3 0-2.6-.1-3.8-.4 2.6 8.1 10.1 14 19 14.1-7 5.5-15.7 8.7-25.2 8.7-1.6 0-3.3-.1-4.8-.3 9 5.8 19.7 9.1 31.2 9.1 37.4 0 57.8-31 57.8-57.8 0-.9 0-1.8-.1-2.6 4.1-2.9 7.5-6.5 10.2-10.5z"/></svg>